<svg width="16" height="16" viewBox="0 0 16 16" xmlns="http://www.w3.org/2000/svg">
  <path fill-rule="evenodd" clip-rule="evenodd" d="M16 7.99999C16 12.3686 12.3765 16 7.99999 16C3.63136 16 0 12.3686 0 7.99999C0 3.62353 3.62353 0 7.99215 0C12.3686 0 16 3.62353 16 7.99999ZM4.57141 10.7495C4.57141 11.1259 4.86564 11.4286 5.24159 11.4286C5.42957 11.4286 5.60121 11.3632 5.73197 11.2322L7.98771 8.95742L10.2516 11.2322C10.3742 11.3632 10.5459 11.4286 10.7338 11.4286C11.118 11.4286 11.4204 11.1259 11.4204 10.7495C11.4204 10.5612 11.355 10.3894 11.2161 10.2667L8.95213 8.00002L11.2242 5.72522C11.3713 5.57793 11.4286 5.43064 11.4286 5.24244C11.4286 4.86603 11.1261 4.57145 10.7502 4.57145C10.5704 4.57145 10.4233 4.62873 10.2843 4.76783L7.98771 7.05082L5.70745 4.77602C5.57668 4.65327 5.42957 4.58782 5.24159 4.58782C4.86564 4.58782 4.57141 4.87421 4.57141 5.2588C4.57141 5.43882 4.63679 5.60248 4.76756 5.7334L7.03147 8.00002L4.76756 10.2748C4.63679 10.3975 4.57141 10.5694 4.57141 10.7495Z" />
</svg>
