<svg xmlns="http://www.w3.org/2000/svg" width="24" height="24" viewBox="0 0 24 24">
  <path fill-rule="evenodd" clip-rule="evenodd" d="M11 3C11 2.44772 11.4477 2 12 2C13.7382 2 15.4464 2.45309 16.9561 3.31458C18.4658 4.17607 19.7249 5.41621 20.6092 6.9127C21.4935 8.40918 21.9725 10.1103 21.9988 11.8483C22.0252 13.5864 21.598 15.3013 20.7595 16.8239C19.921 18.3465 18.7001 19.6242 17.2172 20.5311C15.7343 21.438 14.0407 21.9427 12.3032 21.9954C10.5658 22.0481 8.84465 21.647 7.30949 20.8317C5.77434 20.0164 4.47821 18.815 3.54895 17.3461C3.25369 16.8793 3.39271 16.2616 3.85944 15.9663C4.32618 15.6711 4.9439 15.8101 5.23915 16.2768C5.98256 17.452 7.01946 18.4131 8.24759 19.0654C9.47571 19.7176 10.8526 20.0385 12.2426 19.9963C13.6325 19.9541 14.9875 19.5504 16.1738 18.8249C17.3601 18.0994 18.3368 17.0772 19.0076 15.8591C19.6784 14.641 20.0201 13.2691 19.999 11.8787C19.978 10.4883 19.5948 9.12735 18.8874 7.93016C18.1799 6.73297 17.1727 5.74086 15.9649 5.05166C14.7571 4.36247 13.3905 4 12 4C11.4477 4 11 3.55228 11 3Z"/>
</svg>
