<svg width="14" height="32" viewBox="0 0 14 32" xmlns="http://www.w3.org/2000/svg">
  <path d="M1.4 28.4C1.022 28.4 0.629999 28.246 0.349999 27.938C-0.168001 27.364 -0.112 26.482 0.462 25.964L10.752 16.738C11.046 16.486 11.2 16.15 11.2 15.8C11.2 15.45 11.046 15.114 10.752 14.862L0.462 5.63596C-0.112 5.13196 -0.154001 4.23596 0.363999 3.66196C0.867999 3.08796 1.764 3.04596 2.338 3.56396L12.628 12.79C13.51 13.588 14 14.652 14 15.814C14 16.976 13.51 18.04 12.628 18.838L2.338 28.064C2.072 28.302 1.736 28.414 1.4 28.414V28.4Z"/>
</svg>
